<svg width="26" height="30" viewBox="0 0 26 30" fill="none" xmlns="http://www.w3.org/2000/svg">
<path d="M16.7654 0H3.51218C1.57478 0 0 1.43268 0 3.19295V26.807C0 28.5672 1.57478 29.9999 3.51218 29.9999H21.5957C23.5309 29.9999 25.108 28.5672 25.108 26.807V7.55687L16.7654 0ZM21.5957 28.0436H3.51218C2.76141 28.0436 2.15081 27.4895 2.15081 26.807V3.19295C2.15081 2.51143 2.76141 1.95734 3.51218 1.95734L15.9606 1.94558V6.12805C15.9606 7.35091 17.0522 8.34337 18.3964 8.34337L22.9053 8.3316L22.955 26.807C22.9549 27.4895 22.3466 28.0436 21.5957 28.0436Z" fill="#FFFFFF"/>
<path d="M12.5529 9.39312C9.14734 9.39312 6.38586 11.9036 6.38586 14.9999C6.38586 18.0964 9.14734 20.6068 12.5529 20.6068C15.9595 20.6068 18.7209 18.0963 18.7209 14.9999C18.7209 11.9036 15.9595 9.39312 12.5529 9.39312ZM14.802 15.7477H13.3758V17.0441C13.3758 17.457 13.008 17.7919 12.5529 17.7919C12.0998 17.7919 11.7309 17.457 11.7309 17.0441V15.7477H10.3049C9.85061 15.7477 9.48272 15.4128 9.48272 14.9999C9.48272 14.5872 9.85061 14.2522 10.3049 14.2522H11.7309V12.9558C11.7309 12.5429 12.0998 12.208 12.5529 12.208C13.008 12.208 13.3758 12.5429 13.3758 12.9558V14.2522H14.802C15.2562 14.2522 15.6239 14.5872 15.6239 14.9999C15.6239 15.4128 15.2562 15.7477 14.802 15.7477Z" fill="#FFFFFF"/>
</svg>
