<svg width="50" height="50" viewBox="0 0 50 50" fill="none" xmlns="http://www.w3.org/2000/svg">
<g id="Group">
<path id="Vector" d="M25.0215 0C25.0149 0 25.0061 0.00110348 24.9994 0.00110348C24.9917 0.00110348 24.9851 0 24.9774 0C11.1838 0 0 11.1827 0 24.9785C0 38.772 11.1838 49.9559 24.9774 49.9559C24.9851 49.9559 24.9917 49.9559 24.9994 49.9559C25.0061 49.9559 25.0149 49.9559 25.0215 49.9559C38.8151 49.9559 49.9989 38.772 49.9989 24.9785C50 11.1827 38.8162 0 25.0215 0ZM25.0215 42.8053C25.0149 42.8053 25.0061 42.8042 24.9994 42.8042C24.9917 42.8042 24.9851 42.8053 24.9774 42.8053C22.7196 42.8053 20.889 40.9757 20.889 38.7169C20.889 36.4602 22.7196 34.6307 24.9774 34.6307C24.9851 34.6307 24.9917 34.6307 24.9994 34.6307C25.0061 34.6307 25.0149 34.6307 25.0215 34.6307C27.2781 34.6307 29.111 36.4602 29.111 38.7169C29.111 40.9746 27.2815 42.8053 25.0215 42.8053ZM30.8843 11.6506C30.6173 15.7302 28.7524 27.863 28.7524 27.863C28.7524 29.9088 27.0762 31.5663 25.0303 31.5663C25.0193 31.5663 25.0083 31.5663 24.9983 31.5663C24.9884 31.5663 24.9763 31.5663 24.9663 31.5663C22.9216 31.5663 21.2454 29.9066 21.2454 27.863C21.2454 27.863 19.3816 15.7302 19.1146 11.6506C18.9821 9.60804 20.5469 5.81536 24.9674 5.81536C24.9785 5.81536 24.9895 5.81647 24.9994 5.81647C25.0094 5.81647 25.0204 5.81536 25.0314 5.81536C29.4509 5.81536 31.0179 9.60804 30.8843 11.6506Z" fill="#31859A"/>
</g>
</svg>
