<svg width="18" height="17" viewBox="0 0 18 17" fill="none" xmlns="http://www.w3.org/2000/svg">
<g id="Iconsax/Linear/searchnormal1" clip-path="url(#clip0_43_325)">
<path id="Vector" d="M16.2109 15.1468L14.7566 13.7786M8.5759 14.4627C9.48305 14.4627 10.3813 14.2946 11.2194 13.968C12.0575 13.6414 12.819 13.1627 13.4605 12.5592C14.1019 11.9557 14.6107 11.2392 14.9579 10.4507C15.305 9.66223 15.4837 8.81711 15.4837 7.96364C15.4837 7.11017 15.305 6.26506 14.9579 5.47655C14.6107 4.68805 14.1019 3.9716 13.4605 3.3681C12.819 2.76461 12.0575 2.28589 11.2194 1.95928C10.3813 1.63267 9.48305 1.46457 8.5759 1.46457C6.74384 1.46457 4.98681 2.14929 3.69134 3.3681C2.39588 4.58692 1.66809 6.23998 1.66809 7.96364C1.66809 9.6873 2.39588 11.3404 3.69134 12.5592C4.98681 13.778 6.74384 14.4627 8.5759 14.4627V14.4627Z" stroke="white" stroke-width="1.5" stroke-linecap="round" stroke-linejoin="round"/>
</g>
<defs>
<clipPath id="clip0_43_325">
<rect width="17.4513" height="16.4187" fill="white" transform="translate(0.213821 0.096344)"/>
</clipPath>
</defs>
</svg>
